<?xml version="1.0" encoding="iso-8859-1"?>
<!-- Generator: Adobe Illustrator 19.0.0, SVG Export Plug-In . SVG Version: 6.00 Build 0)  -->
<svg version="1.1" id="Layer_1" xmlns="http://www.w3.org/2000/svg" xmlns:xlink="http://www.w3.org/1999/xlink" x="0px" y="0px"
	 viewBox="0 0 510.596 510.596" style="enable-background:new 0 0 510.596 510.596;" xml:space="preserve">
<g>
	<g>
		<g>
			<path d="M110.229,268.345c-32.99,0-59.733,26.744-59.733,59.733c-0.017,32.99,26.713,59.747,59.703,59.764
				c21.399,0.011,41.17-11.426,51.828-29.983c5.243-9.046,7.982-19.326,7.936-29.781
				C169.962,295.088,143.219,268.345,110.229,268.345z M144.362,336.611h-25.6v25.6c0,4.713-3.82,8.533-8.533,8.533
				s-8.533-3.82-8.533-8.533v-25.6h-25.6c-4.713,0-8.533-3.82-8.533-8.533s3.82-8.533,8.533-8.533h25.6v-25.6
				c0-4.713,3.82-8.533,8.533-8.533s8.533,3.82,8.533,8.533v25.6h25.6c4.713,0,8.533,3.82,8.533,8.533
				S149.075,336.611,144.362,336.611z"/>
			<path d="M492.804,267.338c-7.377-11.408-16.786-21.364-27.759-29.372c-18.807-13.625-41.459-20.917-64.683-20.821H286.613
				c5.953-15.31,2.078-32.699-9.813-44.032c-15.773-15.507-41.123-15.316-56.661,0.427c-4.142,4.329-9.881,6.766-15.872,6.741
				c-6.184-0.012-12.121-2.429-16.555-6.741c-9.289-8.657-9.823-23.197-1.195-32.512c7.358-7.659,11.299-17.972,10.923-28.587
				c-0.404-10.668-4.931-20.763-12.629-28.16c-7.42-7.404-17.346-11.758-27.819-12.203c-11.032-0.134-21.594,4.464-29.013,12.629
				c-3.275,3.393-3.18,8.799,0.213,12.075c3.393,3.275,8.799,3.18,12.075-0.213c4.129-4.681,10.057-7.382,16.299-7.424
				c6.135,0.39,11.91,3.034,16.213,7.424c4.527,4.312,7.191,10.222,7.424,16.469c0.184,5.98-2.028,11.786-6.144,16.128
				c-15.163,16.123-14.399,41.48,1.707,56.661c7.582,7.384,17.747,11.518,28.331,11.52c10.618-0.001,20.781-4.312,28.16-11.947
				c9.873-8.396,24.683-7.199,33.079,2.674c7.039,8.277,7.475,20.305,1.054,29.07h-156.16c-23.224-0.096-45.876,7.196-64.683,20.821
				c-49.49,36.117-60.33,105.514-24.214,155.004c36.117,49.49,105.514,60.33,155.004,24.214
				c10.974-8.008,20.383-17.964,27.76-29.372h102.4c33.268,51.448,101.943,66.186,153.391,32.918S526.072,318.786,492.804,267.338z
				 M176.789,366.478c-21.161,36.76-68.114,49.406-104.875,28.246c-23.837-13.721-38.516-39.142-38.485-66.646
				c0-42.415,34.385-76.8,76.8-76.8s76.8,34.385,76.8,76.8C187.076,341.559,183.542,354.811,176.789,366.478z M201.621,265.87
				c-1.635,1.559-3.799,2.443-6.059,2.475c-1.115-0.013-2.217-0.245-3.243-0.683c-1.034-0.432-1.987-1.038-2.816-1.792
				c-1.559-1.635-2.443-3.799-2.475-6.059c0.013-1.115,0.245-2.217,0.683-3.243c0.434-1.033,1.04-1.985,1.792-2.816
				c0.812-0.777,1.768-1.386,2.816-1.792c2.078-0.853,4.408-0.853,6.485,0c1.047,0.406,2.004,1.015,2.816,1.792
				c0.752,0.831,1.358,1.783,1.792,2.816c0.478,1.013,0.712,2.123,0.683,3.243C204.064,262.071,203.18,264.235,201.621,265.87z
				 M245.311,324.238l-17.067,25.6c-1.57,2.384-4.228,3.825-7.083,3.84c-1.678,0.019-3.319-0.488-4.693-1.451
				c-3.894-2.604-4.96-7.86-2.389-11.776l17.067-25.6c2.604-3.894,7.86-4.96,11.776-2.389
				C246.816,315.066,247.882,320.322,245.311,324.238z M296.511,324.238l-17.067,25.6c-1.57,2.384-4.228,3.825-7.083,3.84
				c-1.678,0.019-3.319-0.488-4.693-1.451c-3.894-2.604-4.96-7.86-2.389-11.776l17.067-25.6c2.604-3.894,7.86-4.96,11.776-2.389
				C298.016,315.066,299.082,320.322,296.511,324.238z M315.029,268.345h-85.333c-4.713,0-8.533-3.82-8.533-8.533
				s3.82-8.533,8.533-8.533h85.333c4.713,0,8.533,3.82,8.533,8.533S319.742,268.345,315.029,268.345z M400.362,404.878
				c-27.456,0.018-52.832-14.623-66.56-38.4c-6.754-11.667-10.287-24.919-10.24-38.4c0-42.415,34.385-76.8,76.8-76.8
				s76.8,34.385,76.8,76.8S442.778,404.878,400.362,404.878z"/>
			<path d="M435.178,279.523c-10.13-7.316-22.32-11.23-34.816-11.179c-32.99,0.013-59.723,26.767-59.71,59.757
				s26.767,59.723,59.757,59.71s59.723-26.767,59.71-59.757C460.111,308.804,450.826,290.736,435.178,279.523z M374.762,336.611
				c0,4.713-3.82,8.533-8.533,8.533s-8.533-3.821-8.533-8.533v-8.533c0-4.713,3.82-8.533,8.533-8.533s8.533,3.82,8.533,8.533
				V336.611z M408.895,362.211c0,4.713-3.82,8.533-8.533,8.533s-8.533-3.82-8.533-8.533v-8.533c0-4.713,3.821-8.533,8.533-8.533
				s8.533,3.82,8.533,8.533V362.211z M408.895,302.478c0,4.713-3.82,8.533-8.533,8.533s-8.533-3.82-8.533-8.533v-8.533
				c0-4.713,3.821-8.533,8.533-8.533s8.533,3.82,8.533,8.533V302.478z M443.029,328.078c0,4.713-3.82,8.533-8.533,8.533
				s-8.533-3.82-8.533-8.533v-8.533c0-4.713,3.82-8.533,8.533-8.533s8.533,3.82,8.533,8.533V328.078z"/>
		</g>
	</g>
</g>
<g>
</g>
<g>
</g>
<g>
</g>
<g>
</g>
<g>
</g>
<g>
</g>
<g>
</g>
<g>
</g>
<g>
</g>
<g>
</g>
<g>
</g>
<g>
</g>
<g>
</g>
<g>
</g>
<g>
</g>
</svg>
